<svg width="32" height="32" viewBox="0 0 32 32" fill="none" xmlns="http://www.w3.org/2000/svg">
<g clip-path="url(#clip0_625_64777)">
<path d="M26 0H6C2.68629 0 0 2.68629 0 6V26C0 29.3137 2.68629 32 6 32H26C29.3137 32 32 29.3137 32 26V6C32 2.68629 29.3137 0 26 0Z" fill="url(#paint0_linear_625_64777)"/>
<path d="M18.084 11.54H18.78C19.092 11.54 19.392 11.536 19.68 11.528C19.968 11.52 20.216 11.512 20.424 11.504L20.364 11.744C20.092 11.752 19.88 11.784 19.728 11.84C19.576 11.888 19.456 11.984 19.368 12.128C19.288 12.264 19.208 12.48 19.128 12.776L17.544 18.728C17.472 19.016 17.44 19.232 17.448 19.376C17.464 19.52 17.536 19.616 17.664 19.664C17.792 19.712 17.988 19.744 18.252 19.76L18.204 20C17.996 19.984 17.748 19.976 17.46 19.976C17.18 19.968 16.884 19.964 16.572 19.964C16.236 19.964 15.916 19.968 15.612 19.976C15.316 19.976 15.076 19.984 14.892 20L14.94 19.76C15.22 19.744 15.432 19.712 15.576 19.664C15.728 19.616 15.848 19.52 15.936 19.376C16.024 19.232 16.104 19.016 16.176 18.728L17.916 12.26L12.936 20.06H12.672L11.808 12.344L10.164 18.56C10.1 18.832 10.068 19.056 10.068 19.232C10.076 19.408 10.152 19.536 10.296 19.616C10.448 19.696 10.684 19.744 11.004 19.76L10.944 20C10.856 19.992 10.736 19.988 10.584 19.988C10.44 19.98 10.288 19.976 10.128 19.976C9.976 19.968 9.832 19.964 9.696 19.964C9.488 19.964 9.28 19.968 9.072 19.976C8.864 19.976 8.692 19.984 8.556 20L8.616 19.76C8.896 19.744 9.112 19.696 9.264 19.616C9.424 19.536 9.552 19.408 9.648 19.232C9.744 19.056 9.824 18.832 9.888 18.56L11.436 12.776C11.516 12.48 11.548 12.264 11.532 12.128C11.516 11.984 11.444 11.888 11.316 11.84C11.196 11.784 11 11.752 10.728 11.744L10.788 11.504C10.94 11.512 11.124 11.52 11.34 11.528C11.564 11.536 11.8 11.54 12.048 11.54C12.24 11.54 12.432 11.536 12.624 11.528C12.816 11.52 12.98 11.512 13.116 11.504L13.788 18.296L18.084 11.54ZM19.4763 19.52C19.4763 19.256 19.5763 19.024 19.7763 18.824C19.9763 18.624 20.2043 18.524 20.4603 18.524C20.6683 18.524 20.8323 18.588 20.9523 18.716C21.0723 18.836 21.1323 18.992 21.1323 19.184C21.1323 19.36 21.0843 19.524 20.9883 19.676C20.9003 19.82 20.7803 19.936 20.6283 20.024C20.4843 20.12 20.3243 20.168 20.1483 20.168C19.9403 20.168 19.7763 20.108 19.6563 19.988C19.5363 19.868 19.4763 19.712 19.4763 19.52Z" fill="white"/>
</g>
<defs>
<linearGradient id="paint0_linear_625_64777" x1="5.5" y1="4" x2="47" y2="44" gradientUnits="userSpaceOnUse">
<stop stop-color="#2A1A0E"/>
<stop offset="1" stop-color="#5F3A20"/>
</linearGradient>
<clipPath id="clip0_625_64777">
<rect width="32" height="32" fill="white"/>
</clipPath>
</defs>
</svg>
